<svg width="24" height="24" viewBox="0 0 24 24" fill="none" xmlns="http://www.w3.org/2000/svg">
<path d="M15.375 12C15.375 10.1719 13.8281 8.625 12 8.625C10.125 8.625 8.625 10.1719 8.625 12C8.625 13.875 10.125 15.375 12 15.375C13.8281 15.375 15.375 13.875 15.375 12ZM20.25 8.625C18.375 8.625 16.875 10.1719 16.875 12C16.875 13.875 18.375 15.375 20.25 15.375C22.0781 15.375 23.625 13.875 23.625 12C23.625 10.1719 22.0781 8.625 20.25 8.625ZM3.75 8.625C1.875 8.625 0.375 10.1719 0.375 12C0.375 13.875 1.875 15.375 3.75 15.375C5.57812 15.375 7.125 13.875 7.125 12C7.125 10.1719 5.57812 8.625 3.75 8.625Z" fill="white"/>
</svg>
